<?xml version="1.0" encoding="UTF-8"?>
<svg id="Layer_2" data-name="Layer 2" xmlns="http://www.w3.org/2000/svg" viewBox="0 0 60.49 6.28">
  <defs>
    <style>
      .cls-1 {
        fill: #010101;
      }

      .cls-2 {
        fill: #f26522;
      }

      .cls-3 {
        fill: #fff;
      }
    </style>
  </defs>
  <g id="Layer_1-2" data-name="Layer 1">
    <g>
      <g id="Layer_1-2" data-name="Layer 1-2">
        <g>
          <polygon class="cls-1" points="12.6 6.25 14.02 0 16.02 0 17.15 3.1 17.85 0 19.83 0 18.44 6.25 16.46 6.24 15.32 3.15 14.59 6.25 12.6 6.25"/>
          <polygon class="cls-1" points="48.53 6.25 49.94 0 51.95 0 53.08 3.1 53.78 0 55.76 0 54.37 6.25 52.38 6.24 51.24 3.15 50.51 6.25 48.53 6.25"/>
          <path class="cls-1" d="M9.76,0h2.98c.51.12.69.5.6,1-.24,1.44-.73,2.91-.99,4.35-.15.47-.62.86-1.11.9-.91.07-1.91-.05-2.83,0-.56-.1-.74-.5-.65-1.03.24-1.44.73-2.92,1-4.37.14-.39.58-.8,1-.85ZM10.51,4.53s.07-.12.09-.17c.24-.77.32-1.67.56-2.46.01-.12.03-.23-.12-.26-.16-.03-.43-.02-.5.16l-.6,2.68c.04.19.47.16.58.05h0Z"/>
          <path class="cls-1" d="M45.69,0h2.98c.51.12.69.5.6,1-.24,1.44-.73,2.91-.99,4.35-.15.47-.62.86-1.11.9-.91.07-1.91-.05-2.83,0-.56-.1-.74-.5-.65-1.03.24-1.44.73-2.92,1-4.37.14-.39.58-.8,1-.85h0ZM46.44,4.53s.07-.12.09-.17c.24-.77.32-1.67.56-2.46.01-.12.03-.23-.12-.26-.16-.03-.43-.02-.5.16l-.6,2.68c.04.19.47.16.58.05h0Z"/>
          <path class="cls-1" d="M36.75,0l-1,4.44c0,.26.62.23.66-.03L37.42,0h1.95l-1.18,5.29c-.13.5-.58.89-1.09.96-.92-.04-1.9.07-2.81,0-.49-.03-.78-.39-.74-.88L34.76,0h1.99Z"/>
          <path class="cls-1" d="M44.28,0l-.37,1.64h-2.27c-.22,0-.32.35-.31.52,0,.12.12.14.22.15.46.04,1.44-.11,1.8.09.37.2.4.56.34.94-.09.57-.27,1.36-.43,1.92-.12.43-.6,1-1.08,1h-3.59l.36-1.63,2.34-.03c.17-.03.27-.45.2-.57-.03-.06-.1-.07-.16-.07-.46-.04-1.54.12-1.88-.13-.28-.19-.35-.49-.31-.81.08-.69.39-1.5.52-2.2.1-.31.65-.81.97-.81h3.64,0Z"/>
          <path class="cls-1" d="M60.49,0l-.37,1.64h-2.29c-.06.03-.09.39-.13.47.03.05.05.01.06.01h2.21l.03.05-.36,1.62h-2.33s-.18.82-.18.82h2.31l-.37,1.64h-4.29L56.2,0h4.29Z"/>
          <path class="cls-1" d="M24.56,0l-.37,1.64h-2.29c-.06.03-.09.39-.13.47.03.05.05.01.06.01h2.21l.03.05-.36,1.62h-2.33s-.18.82-.18.82h2.31l-.37,1.64h-4.29L20.27,0h4.29,0Z"/>
          <path class="cls-1" d="M23.58,6.25l1.43-6.25h3.78c.51.13.69.51.6,1.01-.09.53-.26,1.18-.39,1.71-.16.63-.47,1.17-1.19,1.23-.55.04-1.16-.04-1.72,0l-.53,2.3s-1.99,0-1.99,0ZM26.49,2.31h.43c.06,0,.19-.11.22-.17.04-.08.09-.33.06-.41-.04-.14-.47-.08-.59-.07-.01,0-.01.02-.02.03-.01.03-.13.54-.13.58,0,.03,0,.03.02.05h0Z"/>
          <polygon class="cls-1" points="32.02 0 31 4.61 33.28 4.61 32.91 6.25 28.62 6.25 30.04 0 32.02 0"/>
          <path class="cls-3" d="M46.44,4.53c-.11.11-.55.13-.58-.05l.6-2.68c.07-.18.34-.18.5-.16.15.02.14.14.12.26-.23.78-.31,1.69-.56,2.46-.02.05-.05.14-.09.17h0Z"/>
          <path class="cls-3" d="M26.49,2.31s-.03-.02-.02-.05c0-.03.12-.55.13-.58,0,0,0-.02.02-.03.12,0,.55-.06.59.07.03.09-.02.33-.06.41-.03.06-.16.17-.22.17h-.43Z"/>
        </g>
      </g>
      <g id="Layer_1-2-2" data-name="Layer 1-2">
        <polygon class="cls-2" points="5.69 0 5.18 1.83 7.01 1.83 6.29 4.43 4.45 4.45 3.97 6.28 1.32 6.28 1.83 4.45 0 4.45 .71 1.83 2.56 1.83 3.04 0 5.69 0"/>
      </g>
    </g>
  </g>
</svg>